<svg width="36" height="36" viewBox="0 0 36 36" fill="none" xmlns="http://www.w3.org/2000/svg">
<g clip-path="url(#clip0_88_1935)">
<path d="M35.4615 22.3529C33.0566 32.0009 23.2816 37.8658 13.6474 35.4607C3.99907 33.0557 -1.86583 23.2812 0.539278 13.6471C2.94425 3.99908 12.705 -1.86583 22.3533 0.539279C31.9875 2.93019 37.8666 12.7047 35.4615 22.3529Z" fill="url(#paint0_linear_88_1935)"/>
<path d="M26.5704 15.757C26.9219 13.3664 25.1079 12.0726 22.6047 11.2148L23.4204 7.96636L21.4516 7.47417L20.6641 10.6382C20.1438 10.5117 19.6094 10.3851 19.075 10.2726L19.8625 7.09448L17.8938 6.60229L17.0922 9.83667C16.6563 9.73823 16.2344 9.63979 15.8266 9.54136V9.52729L13.0985 8.85229L12.5782 10.9617C12.5782 10.9617 14.0407 11.2992 14.0125 11.3132C14.8141 11.5101 14.9547 12.0445 14.9266 12.4664L13.9985 16.1648C14.0547 16.1789 14.125 16.1929 14.2094 16.2351C14.1391 16.221 14.0688 16.207 13.9985 16.1789L12.7047 21.3539C12.6063 21.5929 12.3532 21.9585 11.8047 21.8179C11.8188 21.846 10.3704 21.4664 10.3704 21.4664L9.38599 23.7304L11.9594 24.3773C12.4375 24.5039 12.9016 24.6164 13.3657 24.7429L12.55 28.0195L14.5188 28.5117L15.3344 25.2632C15.8688 25.4039 16.4032 25.5445 16.9094 25.671L16.1079 28.9054L18.0766 29.3976L18.8922 26.121C22.2672 26.7539 24.7985 26.5007 25.8532 23.4492C26.711 21.0023 25.811 19.582 24.0391 18.6539C25.3469 18.3585 26.3172 17.5007 26.5704 15.757ZM22.0563 22.0851C21.4516 24.532 17.3172 23.2101 15.9813 22.8726L17.0641 18.5273C18.4 18.8648 22.7032 19.5257 22.0563 22.0851ZM22.675 15.7148C22.1125 17.9507 18.6813 16.8117 17.5704 16.5304L18.5547 12.5929C19.6657 12.8742 23.2516 13.3945 22.675 15.7148Z" fill="white"/>
</g>
<defs>
<linearGradient id="paint0_linear_88_1935" x1="1799.03" y1="-0.863999" x2="1799.03" y2="3599.64" gradientUnits="userSpaceOnUse">
<stop stop-color="#F9AA4B"/>
<stop offset="1" stop-color="#F7931A"/>
</linearGradient>
<clipPath id="clip0_88_1935">
<rect width="36" height="36" fill="white"/>
</clipPath>
</defs>
</svg>
