<svg width="22" height="22" viewBox="0 0 22 22" fill="none" xmlns="http://www.w3.org/2000/svg">
<mask id="mask0_26_192" style="mask-type:luminance" maskUnits="userSpaceOnUse" x="0" y="0" width="22" height="22">
<path d="M0 0H22V22H0V0Z" fill="white"/>
</mask>
<g mask="url(#mask0_26_192)">
<path d="M19.0496 15.7841C18.7807 15.5152 18.3447 15.5152 18.0758 15.7841L16.9596 16.9002L16.9594 6.98502C16.9593 5.15471 15.4703 3.66566 13.6399 3.66566H13.631C11.8007 3.66566 10.3116 5.15476 10.3116 6.98511V15.0409C10.3116 16.1119 9.44028 16.9832 8.36932 16.9832H8.36012C7.28916 16.9832 6.41787 16.1119 6.41787 15.0409V5.10002L7.53407 6.21617C7.80295 6.48505 8.23899 6.48505 8.50787 6.21617C8.77676 5.94724 8.77676 5.51129 8.50787 5.24236L6.21618 2.95066C6.08703 2.82155 5.91189 2.74902 5.72927 2.74902C5.54666 2.74902 5.37152 2.82155 5.24237 2.95066L2.95072 5.24236C2.68183 5.51124 2.68183 5.94724 2.95072 6.21617C3.01459 6.2802 3.09048 6.33099 3.17404 6.3656C3.2576 6.40022 3.34718 6.41798 3.43762 6.41786C3.52807 6.41798 3.61764 6.40022 3.7012 6.36561C3.78476 6.33099 3.86066 6.28021 3.92453 6.21617L5.04067 5.10002V15.0409C5.04067 16.8713 6.52977 18.3604 8.36012 18.3604H8.36932C10.1997 18.3604 11.6888 16.8713 11.6888 15.0409V6.98511C11.6888 5.91415 12.5601 5.04282 13.631 5.04282H13.6399C14.7109 5.04282 15.5822 5.91415 15.5822 6.98507L15.5824 16.9002L14.4662 15.7841C14.1973 15.5152 13.7613 15.5152 13.4924 15.7841C13.2235 16.053 13.2235 16.489 13.4924 16.7579L15.7841 19.0496C15.848 19.1136 15.9239 19.1644 16.0074 19.199C16.091 19.2336 16.1806 19.2514 16.271 19.2513C16.3615 19.2514 16.451 19.2336 16.5346 19.199C16.6182 19.1644 16.694 19.1136 16.7579 19.0496L19.0496 16.7579C19.3185 16.489 19.3185 16.053 19.0496 15.7841Z" fill="white"/>
</g>
</svg>
