<svg width="24" height="24" viewBox="0 0 24 24" fill="none" xmlns="http://www.w3.org/2000/svg">
<path d="M7.79906 16.35C7.87788 16.4092 7.96761 16.4524 8.06312 16.4769C8.15862 16.5014 8.25802 16.5069 8.35564 16.4929C8.45325 16.479 8.54716 16.446 8.63198 16.3957C8.71681 16.3454 8.7909 16.2789 8.85 16.2C9.30409 15.5945 9.89291 15.1031 10.5698 14.7647C11.2468 14.4262 11.9932 14.25 12.75 14.25C13.5068 14.25 14.2532 14.4262 14.9302 14.7647C15.6071 15.1031 16.1959 15.5945 16.65 16.2C16.7091 16.2788 16.7831 16.3452 16.8679 16.3954C16.9526 16.4455 17.0464 16.4785 17.1439 16.4925C17.2414 16.5064 17.3407 16.501 17.4361 16.4765C17.5315 16.4521 17.6212 16.4091 17.7 16.35C17.7788 16.2909 17.8452 16.2169 17.8954 16.1321C17.9455 16.0474 17.9785 15.9536 17.9925 15.8561C18.0064 15.7586 18.001 15.6593 17.9765 15.5639C17.9521 15.4685 17.9091 15.3788 17.85 15.3C17.1858 14.4097 16.3002 13.7086 15.2812 13.2666C15.8397 12.7567 16.231 12.0899 16.4037 11.3537C16.5764 10.6175 16.5225 9.84624 16.2491 9.14121C15.9756 8.43617 15.4954 7.83028 14.8715 7.40304C14.2476 6.9758 13.509 6.74718 12.7528 6.74718C11.9966 6.74718 11.2581 6.9758 10.6341 7.40304C10.0102 7.83028 9.52999 8.43617 9.25655 9.14121C8.98311 9.84624 8.92922 10.6175 9.10194 11.3537C9.27466 12.0899 9.66592 12.7567 10.2244 13.2666C9.20333 13.7078 8.31573 14.4089 7.65 15.3C7.53055 15.459 7.47915 15.659 7.50711 15.8559C7.53506 16.0528 7.64008 16.2305 7.79906 16.35ZM10.5 10.5C10.5 10.055 10.632 9.61998 10.8792 9.24997C11.1264 8.87996 11.4778 8.59157 11.889 8.42127C12.3001 8.25097 12.7525 8.20642 13.189 8.29323C13.6254 8.38005 14.0263 8.59434 14.341 8.90901C14.6557 9.22368 14.87 9.62459 14.9568 10.061C15.0436 10.4975 14.999 10.9499 14.8287 11.361C14.6584 11.7722 14.37 12.1236 14 12.3708C13.63 12.618 13.195 12.75 12.75 12.75C12.1533 12.75 11.581 12.5129 11.159 12.091C10.7371 11.669 10.5 11.0967 10.5 10.5ZM19.5 2.25H6C5.60218 2.25 5.22064 2.40804 4.93934 2.68934C4.65804 2.97064 4.5 3.35218 4.5 3.75V6H3C2.80109 6 2.61032 6.07902 2.46967 6.21967C2.32902 6.36032 2.25 6.55109 2.25 6.75C2.25 6.94891 2.32902 7.13968 2.46967 7.28033C2.61032 7.42098 2.80109 7.5 3 7.5H4.5V11.25H3C2.80109 11.25 2.61032 11.329 2.46967 11.4697C2.32902 11.6103 2.25 11.8011 2.25 12C2.25 12.1989 2.32902 12.3897 2.46967 12.5303C2.61032 12.671 2.80109 12.75 3 12.75H4.5V16.5H3C2.80109 16.5 2.61032 16.579 2.46967 16.7197C2.32902 16.8603 2.25 17.0511 2.25 17.25C2.25 17.4489 2.32902 17.6397 2.46967 17.7803C2.61032 17.921 2.80109 18 3 18H4.5V20.25C4.5 20.6478 4.65804 21.0294 4.93934 21.3107C5.22064 21.592 5.60218 21.75 6 21.75H19.5C19.8978 21.75 20.2794 21.592 20.5607 21.3107C20.842 21.0294 21 20.6478 21 20.25V3.75C21 3.35218 20.842 2.97064 20.5607 2.68934C20.2794 2.40804 19.8978 2.25 19.5 2.25ZM19.5 20.25H6V3.75H19.5V20.25Z" fill="#62DDA9"/>
</svg>
