<svg width="16" height="16" viewBox="0 0 16 16" fill="none" xmlns="http://www.w3.org/2000/svg">
<path d="M6.00002 10.78L3.68668 8.46667C3.56203 8.34202 3.39297 8.27199 3.21668 8.27199C3.0404 8.27199 2.87133 8.34202 2.74668 8.46667C2.62203 8.59132 2.552 8.76039 2.552 8.93667C2.552 9.02396 2.56919 9.11039 2.6026 9.19103C2.636 9.27168 2.68496 9.34495 2.74668 9.40667L5.53335 12.1933C5.79335 12.4533 6.21335 12.4533 6.47335 12.1933L13.5267 5.14001C13.6513 5.01535 13.7214 4.84629 13.7214 4.67001C13.7214 4.49372 13.6513 4.32466 13.5267 4.20001C13.402 4.07535 13.233 4.00533 13.0567 4.00533C12.8804 4.00533 12.7113 4.07535 12.5867 4.20001L6.00002 10.78Z" fill="#161616"/>
</svg>
