<svg width="20" height="19" viewBox="0 0 20 19" fill="none" xmlns="http://www.w3.org/2000/svg">
<g clip-path="url(#clip0_76_739)">
<path d="M20 9.24001C20 10.1713 19.2458 10.9254 18.3146 10.9254H12.5L10 5.86918L12.6979 1.19626C13.1646 0.39001 14.1937 0.11501 15 0.579594C15.8063 1.04626 16.0812 2.07543 15.6167 2.88168L12.9187 7.55459H18.3146C19.2458 7.55459 20 8.30876 20 9.24001Z" fill="#62DDA9"/>
<path d="M15 17.9004C14.1938 18.365 13.1646 18.09 12.6979 17.2838L10 12.6108L7.30209 17.2838C6.83542 18.09 5.80625 18.365 5 17.9004C4.19375 17.4338 3.91875 16.4046 4.38334 15.5983L7.08125 10.9254L10 10.815L12.9188 10.9254L15.6167 15.5983C16.0813 16.4046 15.8063 17.4338 15 17.9004Z" fill="#62DDA9"/>
<path d="M10 5.86918L9.23959 7.93584L7.08125 7.55459L4.38334 2.88168C3.91875 2.07543 4.19375 1.04626 5 0.579594C5.80625 0.11501 6.83542 0.39001 7.30209 1.19626L10 5.86918Z" fill="#62DDA9"/>
<path d="M9.56458 7.5546L7.60833 10.9254H1.68542C0.754167 10.9254 0 10.1713 0 9.24001C0 8.30876 0.754167 7.5546 1.68542 7.5546H9.56458Z" fill="#62DDA9"/>
<path d="M12.9187 10.9254H7.08124L9.99999 5.86917L12.9187 10.9254Z" fill="#62DDA9"/>
</g>
<defs>
<clipPath id="clip0_76_739">
<rect width="20" height="18.48" fill="white"/>
</clipPath>
</defs>
</svg>
