<svg width="24" height="24" viewBox="0 0 24 24" fill="none" xmlns="http://www.w3.org/2000/svg">
<g clip-path="url(#clip0_26_256)">
<mask id="mask0_26_256" style="mask-type:luminance" maskUnits="userSpaceOnUse" x="0" y="0" width="24" height="24">
<path d="M0 0H24V24H0V0Z" fill="white"/>
</mask>
<g mask="url(#mask0_26_256)">
<mask id="mask1_26_256" style="mask-type:luminance" maskUnits="userSpaceOnUse" x="0" y="0" width="24" height="24">
<path d="M0 0H24V24H0V0Z" fill="white"/>
</mask>
<g mask="url(#mask1_26_256)">
<path d="M20.3976 5.51353C18.6962 5.17311 13.9426 4.07823 12.3983 3.1131C12.2789 3.03847 12.141 2.9989 12.0002 2.9989C11.8594 2.9989 11.7215 3.03847 11.6021 3.1131C10.0578 4.07823 5.30415 5.17311 3.60279 5.51353C3.21528 5.59105 2.95402 5.95566 3.00528 6.34753L3.34546 8.9487C3.95602 13.56 6.54356 17.64 10.4437 20.1419L11.5937 20.8819C11.7149 20.9599 11.856 21.0014 12.0002 21.0014C12.1415 21.0014 12.2829 20.9616 12.4067 20.8819L13.5558 20.1425C17.4568 17.64 20.0443 13.56 20.6551 8.94754L20.9951 6.34753C21.0464 5.95566 20.7851 5.59105 20.3976 5.51353ZM19.1655 8.75151C18.613 12.9236 16.2727 16.6145 12.7437 18.8785L12.0002 19.3569L11.2558 18.8779C7.72762 16.6146 5.38733 12.9237 4.83504 8.75271L4.5852 6.8426C6.17621 6.49897 10.0879 5.59297 12.0002 4.61122C13.9125 5.59297 17.8242 6.49897 19.4152 6.8426L19.1655 8.75151Z" fill="#62DDA9"/>
<path d="M9.28104 11.2151C8.98752 10.922 8.51189 10.9222 8.21865 11.2157C7.92552 11.5093 7.9258 11.9849 8.21932 12.2781L10.7258 14.7816C10.7955 14.8513 10.8782 14.9067 10.9693 14.9444C11.0604 14.9821 11.1581 15.0014 11.2567 15.0013C11.4488 15.0013 11.6409 14.928 11.7875 14.7816L17.0438 9.53143C17.3374 9.23824 17.3376 8.76256 17.0445 8.46904C16.7513 8.17548 16.2756 8.17528 15.9821 8.46842L11.2567 13.1884L9.28104 11.2151Z" fill="#62DDA9"/>
</g>
</g>
</g>
<defs>
<clipPath id="clip0_26_256">
<rect width="24" height="24" fill="white"/>
</clipPath>
</defs>
</svg>
