<svg width="24" height="24" viewBox="0 0 24 24" fill="none" xmlns="http://www.w3.org/2000/svg">
<g clip-path="url(#clip0_26_224)">
<mask id="mask0_26_224" style="mask-type:luminance" maskUnits="userSpaceOnUse" x="0" y="0" width="24" height="24">
<path d="M0 0H24V24H0V0Z" fill="white"/>
</mask>
<g mask="url(#mask0_26_224)">
<mask id="mask1_26_224" style="mask-type:luminance" maskUnits="userSpaceOnUse" x="0" y="0" width="24" height="24">
<path d="M0 0H24V24H0V0Z" fill="white"/>
</mask>
<g mask="url(#mask1_26_224)">
<path d="M9.0013 17.0873L9.00034 18.999C9.00034 20.6487 10.3501 21.9985 11.9999 21.9985C13.6496 21.9985 14.9994 20.6487 14.9994 18.999L15.0003 17.0873H9.0013ZM13.4996 18.999C13.4996 19.8288 12.8297 20.4987 11.9998 20.4987C11.1699 20.4987 10.5 19.8288 10.5 18.999L10.5011 17.5432H13.5006L13.4996 18.999H13.4996Z" fill="white"/>
<path d="M18.1288 13.3399C18.0489 13.1599 17.9989 12.9699 17.9989 12.78V10.0004C17.9989 6.95089 15.7093 4.42134 12.7497 4.0514V2.75157C12.7497 2.34165 12.4098 2.00171 11.9998 2.00171C11.5899 2.00171 11.25 2.34165 11.25 2.75157V4.0514C8.29042 4.42134 6.00078 6.95089 6.00078 10.0004V12.78C6.00078 12.9699 5.95081 13.1699 5.87079 13.3399L4.08111 16.9193C3.96111 17.1493 3.98113 17.4292 4.11111 17.6492C4.25108 17.8692 4.49103 17.9991 4.75095 17.9991H19.2487C19.5086 17.9991 19.7486 17.8692 19.8886 17.6392C20.0285 17.4193 20.0386 17.1393 19.9186 16.9093L18.1288 13.3399ZM5.96084 16.4994L7.21062 14.0098C7.4015 13.628 7.50077 13.2069 7.50054 12.78V10.0004C7.50054 7.52084 9.52023 5.50115 11.9998 5.50115C14.4794 5.50115 16.4991 7.52084 16.4991 10.0004V12.78C16.4991 13.1999 16.5991 13.6299 16.7891 14.0098L18.0389 16.4994H5.96084Z" fill="white"/>
</g>
</g>
</g>
<defs>
<clipPath id="clip0_26_224">
<rect width="24" height="24" fill="white"/>
</clipPath>
</defs>
</svg>
