<svg width="36" height="36" viewBox="0 0 36 36" fill="none" xmlns="http://www.w3.org/2000/svg">
<path d="M18 26.25C19.875 26.25 21.469 25.594 22.782 24.282C24.095 22.97 24.751 21.376 24.75 19.5C24.749 17.624 24.093 16.0305 22.782 14.7195C21.471 13.4085 19.877 12.752 18 12.75C16.123 12.748 14.5295 13.4045 13.2195 14.7195C11.9095 16.0345 11.253 17.628 11.25 19.5C11.247 21.372 11.9035 22.966 13.2195 24.282C14.5355 25.598 16.129 26.254 18 26.25ZM18 23.25C16.95 23.25 16.0625 22.8875 15.3375 22.1625C14.6125 21.4375 14.25 20.55 14.25 19.5C14.25 18.45 14.6125 17.5625 15.3375 16.8375C16.0625 16.1125 16.95 15.75 18 15.75C19.05 15.75 19.9375 16.1125 20.6625 16.8375C21.3875 17.5625 21.75 18.45 21.75 19.5C21.75 20.55 21.3875 21.4375 20.6625 22.1625C19.9375 22.8875 19.05 23.25 18 23.25ZM6 31.5C5.175 31.5 4.469 31.2065 3.882 30.6195C3.295 30.0325 3.001 29.326 3 28.5V10.5C3 9.675 3.294 8.969 3.882 8.382C4.47 7.795 5.176 7.501 6 7.5H10.725L13.5 4.5H22.5L25.275 7.5H30C30.825 7.5 31.5315 7.794 32.1195 8.382C32.7075 8.97 33.001 9.676 33 10.5V28.5C33 29.325 32.7065 30.0315 32.1195 30.6195C31.5325 31.2075 30.826 31.501 30 31.5H6ZM6 28.5H30V10.5H23.925L21.1875 7.5H14.8125L12.075 10.5H6V28.5Z" fill="white"/>
</svg>
