<svg width="24" height="24" viewBox="0 0 24 24" fill="none" xmlns="http://www.w3.org/2000/svg">
<g clip-path="url(#clip0_88_2006)">
<mask id="mask0_88_2006" style="mask-type:luminance" maskUnits="userSpaceOnUse" x="0" y="0" width="24" height="24">
<path d="M0 0H24V24H0V0Z" fill="white"/>
</mask>
<g mask="url(#mask0_88_2006)">
<mask id="mask1_88_2006" style="mask-type:luminance" maskUnits="userSpaceOnUse" x="0" y="0" width="24" height="24">
<path d="M0 0H24V24H0V0Z" fill="white"/>
</mask>
<g mask="url(#mask1_88_2006)">
<path d="M20.7056 19.1429L16.9462 15.3845C17.9171 14.0907 18.499 12.489 18.499 10.7502C18.499 6.47791 15.0225 3.00146 10.7502 3.00146C6.47791 3.00146 3.00146 6.47791 3.00146 10.7502C3.00146 15.0225 6.47791 18.499 10.7502 18.499C12.5649 18.499 14.2317 17.8681 15.5535 16.8193L19.2918 20.5566C19.3846 20.6496 19.4948 20.7234 19.6161 20.7736C19.7374 20.8239 19.8674 20.8497 19.9987 20.8496C20.1301 20.8497 20.2601 20.8239 20.3814 20.7736C20.5027 20.7234 20.6129 20.6496 20.7056 20.5566C21.0966 20.1657 21.0966 19.5338 20.7056 19.1429ZM4.50122 10.7502C4.50122 7.30481 7.30476 4.50122 10.7502 4.50122C14.1957 4.50122 16.9992 7.30476 16.9992 10.7502C16.9992 14.1957 14.1957 16.9992 10.7502 16.9992C7.30481 16.9992 4.50122 14.1957 4.50122 10.7502Z" fill="#121330"/>
</g>
</g>
</g>
<defs>
<clipPath id="clip0_88_2006">
<rect width="24" height="24" fill="white"/>
</clipPath>
</defs>
</svg>
