<svg width="14" height="8" viewBox="0 0 14 8" fill="none" xmlns="http://www.w3.org/2000/svg">
<path d="M1.45808 0.515328C1.39444 0.455183 1.31957 0.408163 1.23775 0.376953C1.15593 0.345743 1.06876 0.330953 0.981228 0.333429C0.893693 0.335906 0.807504 0.355599 0.72758 0.391385C0.647656 0.42717 0.575563 0.478348 0.515418 0.541995C0.455272 0.605642 0.408252 0.680513 0.377042 0.762333C0.345831 0.844152 0.331042 0.931317 0.333518 1.01885C0.335995 1.10639 0.355688 1.19258 0.391474 1.2725C0.427259 1.35242 0.478437 1.42452 0.542084 1.48466L6.54208 7.15133C6.66586 7.26835 6.82974 7.33356 7.00008 7.33356C7.17043 7.33356 7.33431 7.26835 7.45809 7.15133L13.4588 1.48466C13.5238 1.42491 13.5763 1.35284 13.6133 1.27262C13.6502 1.1924 13.6709 1.10564 13.674 1.01738C13.6771 0.929115 13.6627 0.841108 13.6315 0.75847C13.6004 0.675833 13.5531 0.600211 13.4925 0.535997C13.4318 0.471783 13.359 0.420257 13.2783 0.384413C13.1976 0.348569 13.1106 0.329121 13.0223 0.327198C12.934 0.325275 12.8462 0.340916 12.764 0.373211C12.6818 0.405508 12.6068 0.453815 12.5434 0.515328L7.00008 5.75L1.45808 0.515328Z" fill="#121330"/>
</svg>
