<svg width="32" height="32" viewBox="0 0 32 32" fill="none" xmlns="http://www.w3.org/2000/svg">
<g clip-path="url(#clip0_102_3289)">
<mask id="mask0_102_3289" style="mask-type:luminance" maskUnits="userSpaceOnUse" x="0" y="0" width="32" height="32">
<path d="M0 0H32V32H0V0Z" fill="white"/>
</mask>
<g mask="url(#mask0_102_3289)">
<mask id="mask1_102_3289" style="mask-type:luminance" maskUnits="userSpaceOnUse" x="0" y="0" width="32" height="32">
<path d="M0 0H32V32H0V0Z" fill="white"/>
</mask>
<g mask="url(#mask1_102_3289)">
<path d="M27.7081 20.6252C27.317 20.2341 26.6827 20.234 26.2917 20.6252L22.3344 24.5821L22.3348 11.6668C22.3348 11.1137 21.8864 10.6652 21.3332 10.6652C20.78 10.6652 20.3316 11.1136 20.3316 11.6668L20.3312 24.5822L16.3747 20.6258C15.9835 20.2347 15.3493 20.2347 14.9582 20.6259C14.5671 21.017 14.5671 21.6511 14.9582 22.0423L20.6245 27.7085C20.6263 27.7103 20.6282 27.7117 20.63 27.7134C20.6517 27.7348 20.6742 27.7553 20.6978 27.7747C20.7099 27.7846 20.7228 27.7934 20.7353 27.8027C20.749 27.8129 20.7623 27.8235 20.7764 27.833C20.7911 27.8428 20.8063 27.8514 20.8214 27.8604C20.8344 27.8681 20.8471 27.8762 20.8605 27.8834C20.8757 27.8916 20.8914 27.8985 20.907 27.9059C20.9211 27.9124 20.9349 27.9195 20.9493 27.9254C20.9645 27.9317 20.98 27.9368 20.9954 27.9423C21.0109 27.9478 21.026 27.9537 21.0418 27.9585C21.0572 27.9632 21.0729 27.9667 21.0885 27.9706C21.1046 27.9746 21.1205 27.9791 21.1369 27.9824C21.1547 27.9859 21.1726 27.988 21.1906 27.9906C21.205 27.9926 21.2192 27.9954 21.2338 27.9968C21.2667 28.0001 21.2997 28.0018 21.3327 28.0018C21.3657 28.0018 21.3987 28.0001 21.4316 27.9968C21.4464 27.9953 21.4608 27.9926 21.4755 27.9905C21.4932 27.9879 21.5109 27.9859 21.5284 27.9824C21.5451 27.9791 21.5613 27.9745 21.5777 27.9704C21.593 27.9665 21.6084 27.9632 21.6236 27.9586C21.6395 27.9538 21.6548 27.9478 21.6704 27.9422C21.6857 27.9368 21.7011 27.9316 21.7161 27.9254C21.7305 27.9194 21.7444 27.9124 21.7584 27.9058C21.774 27.8985 21.7897 27.8916 21.805 27.8834C21.8183 27.8762 21.8311 27.868 21.8441 27.8603C21.8591 27.8513 21.8743 27.8428 21.889 27.833C21.9033 27.8234 21.9168 27.8127 21.9305 27.8024C21.9429 27.7932 21.9556 27.7846 21.9676 27.7747C21.9931 27.7538 22.0177 27.7317 22.041 27.7084L27.708 22.0417C28.0992 21.6506 28.0992 21.0164 27.7081 20.6252Z" fill="white"/>
<path d="M15.625 11.3745C16.0162 11.7656 16.6503 11.7656 17.0414 11.3745C17.4325 10.9833 17.4325 10.3492 17.0414 9.95802L11.3752 4.29184C11.3735 4.29011 11.3715 4.28871 11.3698 4.28698C11.3481 4.26551 11.3254 4.24503 11.3019 4.2256C11.2899 4.21575 11.2773 4.20717 11.2649 4.19795C11.2511 4.18765 11.2375 4.1769 11.2232 4.1673C11.2087 4.15763 11.1937 4.14919 11.1788 4.14035C11.1657 4.13248 11.1527 4.12416 11.1391 4.11687C11.124 4.1088 11.1085 4.10195 11.0931 4.09472C11.0789 4.088 11.0649 4.08096 11.0503 4.07488C11.0353 4.06867 11.0199 4.06362 11.0046 4.05818C10.9891 4.05261 10.9738 4.04659 10.9579 4.04179C10.9424 4.03712 10.9267 4.03367 10.9111 4.02976C10.8951 4.02573 10.8792 4.02125 10.8628 4.01799C10.8445 4.01434 10.826 4.01216 10.8076 4.00954C10.7937 4.00755 10.7801 4.00493 10.766 4.00352C10.7001 3.99699 10.6337 3.99699 10.5678 4.00352C10.5543 4.00487 10.5411 4.00743 10.5278 4.00928C10.5088 4.01191 10.4898 4.01421 10.4709 4.01799C10.4551 4.02112 10.4399 4.02547 10.4244 4.02931C10.4082 4.03335 10.3918 4.03699 10.3758 4.04186C10.3606 4.04647 10.3459 4.05216 10.331 4.05747C10.315 4.06317 10.299 4.06842 10.2833 4.07495C10.2694 4.08071 10.2562 4.08755 10.2426 4.09389C10.2265 4.10144 10.2103 4.10855 10.1945 4.11699C10.1816 4.12391 10.1693 4.13191 10.1567 4.13939C10.1413 4.14855 10.1257 4.15731 10.1106 4.16736C10.0965 4.17677 10.0833 4.18733 10.0697 4.19744C10.0572 4.20679 10.0443 4.21555 10.0321 4.2256C10.0066 4.24653 9.98198 4.26861 9.95868 4.29197L4.29167 9.95859C3.90051 10.3497 3.90051 10.9839 4.29161 11.3751C4.38451 11.4683 4.4949 11.5421 4.61644 11.5925C4.73798 11.6428 4.86828 11.6687 4.99984 11.6685C5.25616 11.6685 5.51247 11.5707 5.70799 11.3751L9.66524 7.41818L9.66492 20.3335C9.66492 20.8867 10.1133 21.3351 10.6665 21.3351C11.2197 21.3351 11.6681 20.8867 11.6681 20.3336L11.6685 7.41811L15.625 11.3745Z" fill="white"/>
</g>
</g>
</g>
<defs>
<clipPath id="clip0_102_3289">
<rect width="32" height="32" fill="white"/>
</clipPath>
</defs>
</svg>
