<svg width="13" height="15" viewBox="0 0 13 15" fill="none" xmlns="http://www.w3.org/2000/svg">
<path d="M0.993852 7.27869C0.741895 7.2782 0.49904 7.37284 0.313852 7.54369C0.218203 7.6339 0.141285 7.7421 0.0874984 7.86208C0.0337123 7.98205 0.00411469 8.11146 0.000399342 8.24289C-0.003316 8.37432 0.0189238 8.5052 0.0658462 8.62802C0.112769 8.75085 0.183453 8.86321 0.273852 8.95869L5.53885 14.6787C5.7192 14.8736 5.9696 14.9889 6.23496 14.9992C6.50033 15.0096 6.75892 14.914 6.95385 14.7337C7.14879 14.5533 7.26409 14.3029 7.27441 14.0376C7.28472 13.7722 7.1892 13.5136 7.00885 13.3187L1.72885 7.59869C1.63504 7.49753 1.52131 7.41689 1.39482 7.36181C1.26833 7.30674 1.13181 7.27844 0.993852 7.27869Z" fill="white"/>
<path d="M11.5538 7.27869C11.4158 7.27844 11.2793 7.30674 11.1528 7.36181C11.0263 7.41689 10.9126 7.49753 10.8188 7.59869L5.53877 13.3187C5.35843 13.5136 5.2629 13.7722 5.27322 14.0376C5.28353 14.3029 5.39884 14.5533 5.59377 14.7337C5.78871 14.914 6.0473 15.0096 6.31266 14.9992C6.57803 14.9889 6.82843 14.8736 7.00877 14.6787L12.2738 8.95869C12.3632 8.86225 12.4328 8.7491 12.4784 8.62574C12.5241 8.50238 12.545 8.37122 12.5399 8.23978C12.5348 8.10833 12.5038 7.97919 12.4487 7.85974C12.3936 7.74029 12.3154 7.63289 12.2188 7.54369C12.0374 7.37632 11.8005 7.28194 11.5538 7.27869Z" fill="white"/>
<path d="M6.27393 0.498657C6.00871 0.498657 5.75436 0.616656 5.56682 0.826696C5.37928 1.03674 5.27393 1.32161 5.27393 1.61866V13.3787C5.27393 13.6757 5.37928 13.9606 5.56682 14.1706C5.75436 14.3807 6.00871 14.4987 6.27393 14.4987C6.53914 14.4987 6.7935 14.3807 6.98103 14.1706C7.16857 13.9606 7.27393 13.6757 7.27393 13.3787V1.61866C7.27393 1.32161 7.16857 1.03674 6.98103 0.826696C6.7935 0.616656 6.53914 0.498657 6.27393 0.498657Z" fill="white"/>
</svg>
