<svg width="22" height="22" viewBox="0 0 22 22" fill="none" xmlns="http://www.w3.org/2000/svg">
<g clip-path="url(#clip0_26_208)">
<mask id="mask0_26_208" style="mask-type:luminance" maskUnits="userSpaceOnUse" x="0" y="0" width="22" height="22">
<path d="M0 0H22V22H0V0Z" fill="white"/>
</mask>
<g mask="url(#mask0_26_208)">
<mask id="mask1_26_208" style="mask-type:luminance" maskUnits="userSpaceOnUse" x="0" y="0" width="22" height="22">
<path d="M0 0H22V22H0V0Z" fill="white"/>
</mask>
<g mask="url(#mask1_26_208)">
<path d="M19.0493 14.1798C18.7804 13.911 18.3444 13.9109 18.0755 14.1798L15.3549 16.9002L15.3551 8.02094C15.3551 7.64064 15.0469 7.33234 14.6665 7.33234C14.2862 7.33234 13.978 7.6406 13.9779 8.02089L13.9777 16.9003L11.2576 14.1802C10.9886 13.9113 10.5527 13.9113 10.2838 14.1803C10.0149 14.4492 10.0149 14.8852 10.2838 15.1541L14.1793 19.0496C14.1806 19.0508 14.1819 19.0518 14.1831 19.053C14.198 19.0677 14.2135 19.0818 14.2297 19.0951C14.2381 19.1019 14.2469 19.108 14.2555 19.1144C14.2649 19.1214 14.2741 19.1286 14.2838 19.1352C14.2939 19.1419 14.3043 19.1478 14.3147 19.154C14.3236 19.1593 14.3324 19.1649 14.3416 19.1698C14.3521 19.1755 14.3628 19.1802 14.3736 19.1853C14.3832 19.1898 14.3927 19.1946 14.4026 19.1987C14.4131 19.2031 14.4237 19.2066 14.4344 19.2104C14.445 19.2141 14.4554 19.2182 14.4662 19.2215C14.4768 19.2247 14.4876 19.2271 14.4983 19.2298C14.5094 19.2325 14.5203 19.2357 14.5316 19.2379C14.5438 19.2403 14.5562 19.2418 14.5685 19.2435C14.5784 19.2449 14.5882 19.2468 14.5983 19.2478C14.6209 19.25 14.6435 19.2512 14.6662 19.2512C14.6889 19.2512 14.7116 19.25 14.7342 19.2478C14.7444 19.2468 14.7543 19.2449 14.7644 19.2434C14.7765 19.2417 14.7887 19.2403 14.8008 19.2379C14.8123 19.2356 14.8234 19.2325 14.8347 19.2296C14.8452 19.227 14.8558 19.2247 14.8662 19.2215C14.8772 19.2182 14.8877 19.2141 14.8984 19.2103C14.9089 19.2065 14.9195 19.203 14.9298 19.1987C14.9397 19.1946 14.9492 19.1898 14.9589 19.1852C14.9696 19.1802 14.9804 19.1755 14.9909 19.1698C15.0001 19.1649 15.0089 19.1593 15.0178 19.1539C15.0281 19.1478 15.0386 19.1419 15.0487 19.1352C15.0585 19.1286 15.0678 19.1213 15.0772 19.1142C15.0857 19.1078 15.0944 19.1019 15.1027 19.0951C15.1203 19.0807 15.1372 19.0656 15.1532 19.0495L19.0492 15.1537C19.3182 14.8848 19.3182 14.4488 19.0493 14.1798Z" fill="white"/>
<path d="M10.7422 7.81997C11.0111 8.08886 11.4471 8.0889 11.716 7.81997C11.9849 7.55105 11.9849 7.11509 11.716 6.84617L7.82043 2.95067C7.81924 2.94948 7.81788 2.94851 7.81669 2.94733C7.80179 2.93256 7.78623 2.91849 7.77005 2.90513C7.76178 2.89835 7.75311 2.89246 7.74462 2.88612C7.73512 2.87904 7.72579 2.87165 7.71593 2.86505C7.70599 2.8584 7.69565 2.85259 7.68544 2.84652C7.67638 2.84111 7.66744 2.83539 7.65812 2.83037C7.64773 2.82483 7.63708 2.82012 7.62652 2.81515C7.61676 2.81053 7.60712 2.80569 7.59709 2.80151C7.58675 2.79724 7.57614 2.79377 7.56567 2.79003C7.55498 2.7862 7.54446 2.78206 7.53351 2.77876C7.5229 2.77555 7.51212 2.77317 7.50139 2.77049C7.49034 2.76772 7.47943 2.76464 7.46817 2.76239C7.45558 2.75989 7.44287 2.75839 7.43019 2.75659C7.42065 2.75522 7.41128 2.75342 7.4016 2.75245C7.3563 2.74796 7.31067 2.74796 7.26537 2.75245C7.25604 2.75337 7.24702 2.75513 7.23783 2.75641C7.22476 2.75821 7.21169 2.7598 7.19871 2.76239C7.18789 2.76455 7.17741 2.76754 7.16677 2.77018C7.15559 2.77295 7.14437 2.77546 7.13333 2.77881C7.1229 2.78197 7.11282 2.78589 7.10257 2.78954C7.09157 2.79346 7.08057 2.79707 7.06975 2.80155C7.0602 2.80551 7.05109 2.81022 7.04176 2.81458C7.03067 2.81977 7.01954 2.82465 7.00872 2.83046C6.99983 2.83521 6.99138 2.84071 6.98272 2.84586C6.97211 2.85215 6.96138 2.85818 6.95104 2.86509C6.94136 2.87156 6.93225 2.87882 6.92292 2.88577C6.9143 2.89219 6.90545 2.89822 6.89705 2.90513C6.87949 2.91952 6.8626 2.9347 6.84658 2.95076L2.95051 6.84656C2.68158 7.11545 2.68158 7.55149 2.95047 7.82041C3.01433 7.88446 3.09023 7.93524 3.17379 7.96986C3.25735 8.00447 3.34693 8.02223 3.43737 8.02211C3.61359 8.02211 3.78981 7.95488 3.92423 7.82041L6.64484 5.10003L6.64462 13.9793C6.64462 14.3596 6.95288 14.6679 7.33322 14.6679C7.71351 14.6679 8.02177 14.3596 8.02182 13.9794L8.02208 5.09998L10.7422 7.81997Z" fill="white"/>
</g>
</g>
</g>
<defs>
<clipPath id="clip0_26_208">
<rect width="22" height="22" fill="white"/>
</clipPath>
</defs>
</svg>
