<svg width="22" height="22" viewBox="0 0 22 22" fill="none" xmlns="http://www.w3.org/2000/svg">
<g clip-path="url(#clip0_26_205)">
<path d="M20.1117 10.2941C19.7725 8.02997 17.71 6.41664 15.4183 6.41664H12.7875C12.3108 6.41664 11.9167 6.8108 11.9167 7.28747C11.9167 7.76414 12.3108 8.1583 12.7875 8.1583H15.4458C16.9125 8.1583 18.2325 9.2033 18.3975 10.6608C18.5533 11.9716 17.8108 13.1266 16.7017 13.6125L17.985 14.8958C19.4792 13.9608 20.405 12.2283 20.1117 10.2941ZM3.77666 3.2633C3.41916 2.9058 2.84166 2.9058 2.48416 3.2633C2.12666 3.6208 2.12666 4.1983 2.48416 4.5558L4.68416 6.7558C2.90583 7.48914 1.68666 9.29497 1.85166 11.3758C2.04416 13.7958 4.2075 15.5833 6.6275 15.5833H9.2125C9.68916 15.5833 10.0833 15.1891 10.0833 14.7125C10.0833 14.2358 9.68916 13.8416 9.2125 13.8416H6.56333C5.06916 13.8416 3.72166 12.7508 3.58416 11.2566C3.44666 9.67997 4.60166 8.3508 6.105 8.1858L8.03 10.1108C7.63583 10.1933 7.33333 10.5325 7.33333 10.9541V11.0458C7.33333 11.5225 7.7275 11.9166 8.20416 11.9166H9.83583L11.9167 13.9975V15.5833H13.5025L16.5275 18.6083C16.885 18.9658 17.4625 18.9658 17.82 18.6083C18.1775 18.2508 18.1775 17.6733 17.82 17.3158L3.77666 3.2633ZM14.6667 10.9541C14.6667 10.4775 14.2725 10.0833 13.7958 10.0833H13.1908L14.5567 11.4491C14.6208 11.33 14.6667 11.1925 14.6667 11.0458V10.9541Z" fill="white"/>
</g>
<defs>
<clipPath id="clip0_26_205">
<rect width="22" height="22" fill="white"/>
</clipPath>
</defs>
</svg>
