<svg width="200" height="200" viewBox="0 0 200 200" fill="none" xmlns="http://www.w3.org/2000/svg">
<g clip-path="url(#clip0_88_2208)">
<mask id="mask0_88_2208" style="mask-type:luminance" maskUnits="userSpaceOnUse" x="0" y="0" width="200" height="200">
<path d="M0 0H200V200H0V0Z" fill="white"/>
</mask>
<g mask="url(#mask0_88_2208)">
<mask id="mask1_88_2208" style="mask-type:luminance" maskUnits="userSpaceOnUse" x="0" y="0" width="200" height="200">
<path d="M0 0H200V200H0V0Z" fill="white"/>
</mask>
<g mask="url(#mask1_88_2208)">
<path d="M130.328 76.752L88.8352 118.245L72.3376 101.831C69.9216 99.4144 65.922 99.4144 63.5056 101.831C61.0896 104.247 61.0896 108.246 63.5056 110.663L84.4192 131.493C85.6688 132.742 87.252 133.326 88.8352 133.326C90.4184 133.326 92.0012 132.742 93.2512 131.493L139.16 85.5836C141.66 83.1676 141.66 79.2516 139.16 76.7516C136.744 74.3356 132.828 74.3356 130.328 76.7516L130.328 76.752Z" fill="#62DDA9"/>
<path d="M98 16.678C52.0908 17.8444 15.5968 56.0884 16.68 101.998C17.18 124.244 26.4284 144.991 42.5092 160.322C58.1732 175.236 78.42 183.318 99.9168 183.318H102C124.246 182.818 144.993 173.57 160.324 157.489C175.654 141.408 183.82 120.245 183.32 97.9984C182.82 75.752 173.572 55.0052 157.491 39.6744C141.327 24.3436 120.247 16.1784 98.0004 16.678H98ZM151.242 148.824C138.16 162.488 120.58 170.32 101.666 170.737C82.6696 171.237 64.8388 164.238 51.0912 151.24C37.3432 138.242 29.5944 120.578 29.178 101.664C28.2616 62.5872 59.2564 30.0924 98.25 29.176H100C118.247 29.176 135.494 36.0916 148.826 48.756C162.49 61.8376 170.322 79.418 170.739 98.3316C171.239 117.162 164.323 135.159 151.242 148.824Z" fill="#62DDA9"/>
</g>
</g>
</g>
<defs>
<clipPath id="clip0_88_2208">
<rect width="200" height="200" fill="white"/>
</clipPath>
</defs>
</svg>
