<svg width="24" height="24" viewBox="0 0 24 24" fill="none" xmlns="http://www.w3.org/2000/svg">
<g clip-path="url(#clip0_88_1883)">
<mask id="mask0_88_1883" style="mask-type:luminance" maskUnits="userSpaceOnUse" x="0" y="0" width="24" height="24">
<path d="M0 0H24V24H0V0Z" fill="white"/>
</mask>
<g mask="url(#mask0_88_1883)">
<mask id="mask1_88_1883" style="mask-type:luminance" maskUnits="userSpaceOnUse" x="0" y="0" width="24" height="24">
<path d="M0 0H24V24H0V0Z" fill="white"/>
</mask>
<g mask="url(#mask1_88_1883)">
<path d="M6.00015 2.9989H4.75013C3.78452 2.9989 2.9989 3.78447 2.9989 4.75009V6.0001C2.9989 6.41497 3.33519 6.75125 3.7501 6.75125C4.16501 6.75125 4.50135 6.41497 4.50135 6.0001V4.75009C4.50135 4.61521 4.61525 4.50125 4.75013 4.50125H6.00015C6.41506 4.50125 6.75135 4.16492 6.75135 3.75005C6.75135 3.33519 6.41506 2.9989 6.00015 2.9989ZM12.0001 4.50125H13.2502C13.385 4.50125 13.4989 4.61521 13.4989 4.75009V6.0001C13.4989 6.41497 13.8353 6.75125 14.2502 6.75125C14.6651 6.75125 15.0014 6.41497 15.0014 6.0001V4.75009C15.0014 3.78447 14.2158 2.9989 13.2502 2.9989H12.0001C11.5852 2.9989 11.2489 3.33519 11.2489 3.75005C11.2489 4.16492 11.5852 4.50125 12.0001 4.50125ZM19.2499 8.00794H10.7496C9.78394 8.00794 8.99837 8.79356 8.99837 9.75917V19.2591C8.99837 20.2248 9.78394 21.0104 10.7496 21.0104H19.2499C20.2155 21.0104 21.0011 20.2248 21.0011 19.2591V9.75917C21.0011 8.79356 20.2155 8.00794 19.2499 8.00794ZM19.4987 19.2591C19.4986 19.3251 19.4724 19.3883 19.4257 19.435C19.3791 19.4816 19.3158 19.5079 19.2499 19.508H10.7496C10.6836 19.5079 10.6204 19.4816 10.5737 19.435C10.5271 19.3883 10.5008 19.3251 10.5008 19.2591V9.75917C10.5008 9.69321 10.5271 9.62997 10.5737 9.58332C10.6204 9.53668 10.6836 9.51043 10.7496 9.51034H19.2499C19.3158 9.51043 19.3791 9.53668 19.4257 9.58332C19.4724 9.62997 19.4986 9.69321 19.4987 9.75917V19.2591ZM6.00015 14.4989H4.75013C4.61525 14.4989 4.50135 14.385 4.50135 14.2501V13.0001C4.50135 12.5852 4.16501 12.2489 3.7501 12.2489C3.33519 12.2489 2.9989 12.5852 2.9989 13.0001V14.2501C2.9989 15.2157 3.78452 16.0013 4.75013 16.0013H6.00015C6.41506 16.0013 6.75135 15.665 6.75135 15.2501C6.75135 14.8353 6.41506 14.4989 6.00015 14.4989Z" fill="#121330"/>
</g>
</g>
</g>
<defs>
<clipPath id="clip0_88_1883">
<rect width="24" height="24" fill="white"/>
</clipPath>
</defs>
</svg>
