<svg width="24" height="24" viewBox="0 0 24 24" fill="none" xmlns="http://www.w3.org/2000/svg">
<g clip-path="url(#clip0_26_241)">
<mask id="mask0_26_241" style="mask-type:luminance" maskUnits="userSpaceOnUse" x="0" y="0" width="24" height="24">
<path d="M0 0H24V24H0V0Z" fill="white"/>
</mask>
<g mask="url(#mask0_26_241)">
<mask id="mask1_26_241" style="mask-type:luminance" maskUnits="userSpaceOnUse" x="0" y="0" width="24" height="24">
<path d="M0 0H24V24H0V0Z" fill="white"/>
</mask>
<g mask="url(#mask1_26_241)">
<path d="M12.0002 14.5004C11.5853 14.5004 11.249 14.165 11.249 13.7501V13.7482C11.249 12.5981 11.8676 11.5226 12.9039 10.8714C13.4621 10.5206 13.9203 9.74921 13.6858 8.81653C13.5358 8.22027 13.0488 7.71713 12.4738 7.56454C11.9305 7.4203 11.393 7.52408 10.9606 7.85682C10.5099 8.20352 10.2514 8.73565 10.2514 9.31673C10.2514 9.7316 9.91509 10.0679 9.50018 10.0679C9.08527 10.0679 8.74893 9.7316 8.74893 9.31673C8.74893 8.26553 9.2212 7.29934 10.0445 6.66598C10.8433 6.05153 11.8691 5.84979 12.8591 6.1124C13.9629 6.40529 14.8593 7.32291 15.1428 8.45014C15.505 9.89053 14.9265 11.3747 13.7033 12.1435C13.1072 12.518 12.7514 13.118 12.7514 13.7482C12.7514 14.1631 12.4151 14.5004 12.0002 14.5004ZM12 17.9843C11.9683 17.9843 11.9357 17.9823 11.9035 17.9794C11.8713 17.9761 11.8392 17.9713 11.808 17.965C11.745 17.9519 11.6833 17.9331 11.6237 17.9089C11.5944 17.8964 11.5651 17.8825 11.5368 17.8676C11.5083 17.8525 11.4806 17.836 11.4538 17.8182C11.427 17.8003 11.4011 17.7812 11.376 17.761C11.351 17.7404 11.3271 17.7188 11.3045 17.6958C11.2815 17.6732 11.2599 17.6492 11.2392 17.6243C11.1987 17.5742 11.163 17.5203 11.1327 17.4634C11.1178 17.4351 11.1039 17.4058 11.0913 17.3766C11.0792 17.3468 11.0685 17.3166 11.0592 17.2858C11.0498 17.255 11.0418 17.2238 11.0352 17.1923C11.0289 17.1607 11.0241 17.1288 11.0208 17.0967C11.0179 17.065 11.016 17.0324 11.016 17.0003C11.016 16.9681 11.0179 16.9355 11.0208 16.9033C11.0242 16.8716 11.029 16.8394 11.0352 16.8078C11.042 16.7766 11.0497 16.7454 11.0592 16.7146C11.0683 16.6839 11.0793 16.6532 11.0913 16.6239C11.1039 16.5942 11.1178 16.5649 11.1327 16.5366C11.1476 16.5082 11.1643 16.4804 11.1821 16.454C11.2177 16.4001 11.2587 16.3499 11.3045 16.3043C11.3271 16.2817 11.351 16.2596 11.376 16.2394C11.401 16.2193 11.4273 16.1996 11.4538 16.1818C11.4807 16.1641 11.5085 16.1478 11.5368 16.1324C11.5651 16.1175 11.5944 16.1036 11.6237 16.0916C11.6535 16.0791 11.6837 16.0681 11.7144 16.059C11.7451 16.0498 11.7768 16.0417 11.808 16.0354C11.8392 16.0292 11.8713 16.0244 11.9035 16.021C11.9679 16.0143 12.0327 16.0143 12.097 16.021C12.1287 16.0244 12.1608 16.0292 12.1925 16.0354C12.2237 16.0417 12.2553 16.0498 12.2861 16.059C12.3163 16.0681 12.3471 16.0791 12.3763 16.0916C12.4061 16.1036 12.4353 16.1175 12.4637 16.1324C12.492 16.1478 12.5199 16.1641 12.5463 16.1818C12.5731 16.1996 12.5995 16.2193 12.624 16.2394C12.6743 16.2801 12.7201 16.326 12.7608 16.3763C12.7815 16.4012 12.8007 16.4271 12.8184 16.454C12.8362 16.4804 12.8525 16.5082 12.8679 16.5366C12.8827 16.5649 12.8967 16.5942 12.9087 16.6239C12.9211 16.6532 12.9322 16.6839 12.9413 16.7146C12.9509 16.7449 12.9586 16.7766 12.9648 16.8078C12.9716 16.8394 12.9763 16.8716 12.9792 16.9033C12.9826 16.9355 12.9845 16.9681 12.9845 17.0003C12.9845 17.0324 12.9826 17.065 12.9792 17.0967C12.9763 17.1289 12.9716 17.1611 12.9648 17.1923C12.9587 17.2239 12.9508 17.2551 12.9413 17.2858C12.9322 17.3166 12.9211 17.3468 12.9087 17.3766C12.8967 17.4058 12.8827 17.4351 12.8679 17.4634C12.8525 17.4918 12.8362 17.5196 12.8184 17.5465C12.8007 17.5734 12.7815 17.5993 12.7608 17.6243C12.7407 17.6492 12.7186 17.6732 12.696 17.6958C12.6735 17.7188 12.649 17.7404 12.624 17.761C12.5995 17.7812 12.5731 17.8004 12.5463 17.8182C12.5199 17.836 12.492 17.8527 12.4637 17.8676C12.4353 17.8825 12.4061 17.8964 12.3763 17.9089C12.3471 17.9209 12.3163 17.9319 12.2861 17.941C12.2553 17.9506 12.2237 17.9583 12.1925 17.965C12.1608 17.9713 12.1287 17.9761 12.097 17.9794C12.0648 17.9823 12.0322 17.9843 12 17.9843Z" fill="white"/>
<path d="M12.0002 22.0014C6.48548 22.0014 1.99887 17.5149 1.99887 12.0001C1.99887 6.48541 6.48548 1.9989 12.0002 1.9989C17.5149 1.9989 22.0014 6.48541 22.0014 12.0001C22.0014 17.5149 17.5149 22.0014 12.0002 22.0014ZM12.0002 3.5013C7.31386 3.5013 3.50132 7.31385 3.50132 12.0001C3.50132 16.6864 7.31386 20.499 12.0002 20.499C16.6864 20.499 20.499 16.6864 20.499 12.0001C20.499 7.31385 16.6864 3.5013 12.0002 3.5013Z" fill="white"/>
</g>
</g>
</g>
<defs>
<clipPath id="clip0_26_241">
<rect width="24" height="24" fill="white"/>
</clipPath>
</defs>
</svg>
