<svg width="24" height="24" viewBox="0 0 24 24" fill="none" xmlns="http://www.w3.org/2000/svg">
<g clip-path="url(#clip0_110_4440)">
<mask id="mask0_110_4440" style="mask-type:luminance" maskUnits="userSpaceOnUse" x="0" y="0" width="24" height="24">
<path d="M0 0H24V24H0V0Z" fill="white"/>
</mask>
<g mask="url(#mask0_110_4440)">
<mask id="mask1_110_4440" style="mask-type:luminance" maskUnits="userSpaceOnUse" x="0" y="0" width="24" height="24">
<path d="M0 0H24V24H0V0Z" fill="white"/>
</mask>
<g mask="url(#mask1_110_4440)">
<path d="M21.2499 18.499H8.1556L17.4505 9.20419C18.1835 8.47109 18.1835 7.27829 17.4505 6.54528L15.4548 4.54963C14.7217 3.81663 13.5289 3.81663 12.7958 4.54963L2.21863 15.1268C2.14887 15.1966 2.09353 15.2794 2.05578 15.3705C2.01803 15.4617 1.9986 15.5594 1.9986 15.658V19.2502C1.9986 19.6651 2.33488 20.0014 2.7498 20.0014H5.99935L5.99983 20.0014H21.2499C21.6648 20.0014 22.0011 19.6651 22.0011 19.2502C22.0011 18.8353 21.6648 18.499 21.2499 18.499ZM13.8582 5.61202C14.0055 5.46475 14.2451 5.46475 14.3924 5.61202L16.3881 7.60767C16.5353 7.75493 16.5353 7.99459 16.3881 8.14186L14.5244 10.0055L11.9946 7.47562L13.8582 5.61202ZM3.501 15.9692L10.9322 8.538L13.4621 11.0679L6.03093 18.499H3.501V15.9692Z" fill="#121330"/>
</g>
</g>
</g>
<defs>
<clipPath id="clip0_110_4440">
<rect width="24" height="24" fill="white"/>
</clipPath>
</defs>
</svg>
