<svg width="48" height="48" viewBox="0 0 48 48" fill="none" xmlns="http://www.w3.org/2000/svg">
<path fill-rule="evenodd" clip-rule="evenodd" d="M12.5714 8H35.4286C36.641 8 37.8038 8.48163 38.6611 9.33894C39.5184 10.1962 40 11.359 40 12.5714V35.4286C40 36.641 39.5184 37.8038 38.6611 38.6611C37.8038 39.5184 36.641 40 35.4286 40H12.5714C11.359 40 10.1962 39.5184 9.33894 38.6611C8.48163 37.8038 8 36.641 8 35.4286V12.5714C8 11.359 8.48163 10.1962 9.33894 9.33894C10.1962 8.48163 11.359 8 12.5714 8Z" stroke="black" stroke-linecap="round" stroke-linejoin="round"/>
<path d="M40 30.8572L33.1429 24L26.2857 30.8229M35.4286 40L14.8571 19.4286L8 26.2857" stroke="black" stroke-linecap="round" stroke-linejoin="round"/>
<path d="M32.0001 18.2857C33.2624 18.2857 34.2858 17.2623 34.2858 15.9999C34.2858 14.7376 33.2624 13.7142 32.0001 13.7142C30.7377 13.7142 29.7144 14.7376 29.7144 15.9999C29.7144 17.2623 30.7377 18.2857 32.0001 18.2857Z" fill="black"/>
</svg>
