<svg width="181" height="125" viewBox="0 0 181 125" fill="none" xmlns="http://www.w3.org/2000/svg">
<path d="M90.2677 14.6325L64.9156 0V36.2819L104.294 59.0132L90.2677 67.112L76.2416 59.0132V52.9522L64.9156 46.4185V65.5574L90.2677 80.1899L115.62 65.5574V52.4795L76.2416 29.7482V19.622L90.2677 27.7104L104.294 19.622V35.8092L115.62 42.3429V0L90.2677 14.6325Z" fill="url(#paint0_linear_45_42)"/>
<path d="M13.4339 106.721L3.11912 89.7452H0V116.989H4.48046V99.5419L11.8706 111.702H14.9897L22.3874 99.5419V116.989H26.8678V89.7452H23.7487L13.4339 106.721Z" fill="white"/>
<path d="M45.2609 99.1231C43.8625 98.3052 42.2656 97.8886 40.6458 97.9191C38.9543 97.9038 37.2888 98.3364 35.8187 99.1731C34.3485 100.01 33.1262 101.221 32.2758 102.683C31.4101 104.193 30.9657 105.908 30.9893 107.648C30.9627 109.397 31.4154 111.119 32.2982 112.629C33.1444 114.086 34.3662 115.29 35.8362 116.114C37.3817 116.971 39.1255 117.407 40.8927 117.378C42.31 117.388 43.7146 117.111 45.0216 116.563C46.3026 116.033 47.4386 115.204 48.3352 114.147L45.605 111.388C45.0367 112.04 44.325 112.552 43.5256 112.883C42.6771 113.224 41.7697 113.394 40.8553 113.384C39.8095 113.403 38.7773 113.145 37.8633 112.637C37.0137 112.166 36.3216 111.456 35.8736 110.595C35.6502 110.161 35.4818 109.702 35.3725 109.226H49.3076C49.3824 108.845 49.4422 108.479 49.4796 108.157C49.5214 107.842 49.5414 107.525 49.5394 107.207C49.5702 105.541 49.1763 103.894 48.395 102.421C47.6644 101.061 46.5821 99.9221 45.2609 99.1231ZM35.8587 104.5C36.2792 103.678 36.9286 102.995 37.7287 102.533C38.5974 102.053 39.5786 101.813 40.571 101.838C41.486 101.806 42.3928 102.02 43.1965 102.458C43.9132 102.876 44.4888 103.499 44.8495 104.246C45.0736 104.721 45.2345 105.224 45.3282 105.741H35.4174C35.517 105.312 35.665 104.896 35.8587 104.5Z" fill="white"/>
<path d="M59.6448 90.523H55.3663V98.308H50.8858V102.197H55.3663V116.989H59.6448V102.197H64.1252V98.308H59.6448V90.523Z" fill="white"/>
<path d="M80.2444 100.469C79.6986 99.8092 79.0371 99.2542 78.2922 98.8315C77.1417 98.2189 75.8556 97.9051 74.5522 97.9191C72.9348 97.9001 71.3468 98.3523 69.982 99.2203C68.6202 100.091 67.507 101.299 66.7507 102.728C65.943 104.254 65.5339 105.959 65.5614 107.686C65.5367 109.403 65.9457 111.098 66.7507 112.614C67.5053 114.038 68.6193 115.239 69.982 116.099C71.3516 116.954 72.9378 117.398 74.5522 117.378C75.8706 117.397 77.1725 117.084 78.337 116.465C79.0644 116.049 79.7105 115.504 80.2444 114.858V116.989H84.5229V98.293H80.2444V100.469ZM79.0402 111.739C78.5538 112.266 77.9589 112.682 77.2965 112.957C76.634 113.232 75.9197 113.36 75.203 113.332C74.2364 113.341 73.2863 113.082 72.4578 112.584C71.663 112.1 71.0163 111.406 70.5879 110.58C70.1398 109.657 69.9071 108.644 69.9071 107.619C69.9071 106.593 70.1398 105.58 70.5879 104.657C71.0182 103.832 71.6645 103.139 72.4578 102.653C73.2863 102.155 74.2364 101.896 75.203 101.905C76.1819 101.892 77.1452 102.151 77.9855 102.653C78.778 103.136 79.4203 103.83 79.8405 104.657C80.2991 105.586 80.525 106.613 80.4987 107.648C80.5565 109.149 80.0342 110.614 79.0402 111.739Z" fill="white"/>
<path d="M104.472 103.468C103.702 102.856 102.851 102.353 101.944 101.972C101.016 101.584 100.096 101.225 99.1761 100.925C98.317 100.637 97.4732 100.305 96.6479 99.9308C95.9502 99.6296 95.3195 99.1923 94.7929 98.6445C94.3123 98.0905 94.0632 97.3729 94.0973 96.6403C94.0785 96.1921 94.1736 95.7465 94.3737 95.345C94.5738 94.9435 94.8725 94.5993 95.2417 94.3444C96.1888 93.7506 97.2971 93.4658 98.4132 93.5293C99.4172 93.5088 100.412 93.7266 101.315 94.1649C102.233 94.6623 103.05 95.3268 103.724 96.1243L106.761 93.0881C105.82 91.956 104.647 91.0402 103.32 90.4033C101.821 89.6834 100.173 89.3248 98.5104 89.3563C96.969 89.3401 95.441 89.6431 94.0225 90.2463C92.7339 90.7988 91.6233 91.6969 90.8136 92.8413C89.9955 94.0509 89.5793 95.4874 89.6243 96.9469C89.5787 98.1406 89.8198 99.3279 90.3274 100.409C90.7628 101.289 91.395 102.057 92.1749 102.653C92.9541 103.23 93.8037 103.705 94.7031 104.066C95.6232 104.448 96.5507 104.814 97.4707 105.083C98.3304 105.354 99.1702 105.683 99.9839 106.071C100.695 106.406 101.325 106.89 101.831 107.491C102.326 108.132 102.575 108.927 102.535 109.735C102.547 110.241 102.43 110.741 102.196 111.19C101.962 111.639 101.618 112.021 101.196 112.3C100.119 112.975 98.8597 113.301 97.5904 113.235C96.2086 113.292 94.837 112.976 93.6186 112.322C92.547 111.669 91.6348 110.785 90.9482 109.735L87.9114 112.771C89.0001 114.189 90.3799 115.357 91.958 116.196C93.6684 117.019 95.5512 117.419 97.4483 117.363C100.38 117.363 102.709 116.65 104.434 115.224C105.286 114.523 105.964 113.634 106.414 112.627C106.865 111.621 107.076 110.523 107.03 109.421C107.07 108.179 106.83 106.945 106.327 105.809C105.895 104.897 105.261 104.097 104.472 103.468Z" fill="white"/>
<path d="M128.363 110.109L124.084 98.308H121.593L117.307 110.116L112.909 98.308H108.466L115.983 116.989H118.474L122.835 105.861L127.196 116.989H129.687L137.204 98.308H132.761L128.363 110.109Z" fill="white"/>
<path d="M152.972 100.469C152.432 99.8113 151.779 99.2564 151.042 98.8315C149.876 98.21 148.571 97.896 147.249 97.9191C145.63 97.8991 144.039 98.3513 142.672 99.2203C141.31 100.091 140.197 101.299 139.44 102.728C138.633 104.254 138.224 105.959 138.251 107.686C138.226 109.403 138.635 111.098 139.44 112.614C140.195 114.038 141.309 115.239 142.672 116.099C144.044 116.955 145.633 117.399 147.249 117.378C148.578 117.403 149.891 117.089 151.064 116.465C151.793 116.05 152.439 115.506 152.972 114.858V116.989H157.25V98.293H152.972V100.469ZM151.782 111.739C151.296 112.266 150.701 112.682 150.039 112.957C149.376 113.232 148.662 113.36 147.945 113.332C146.979 113.341 146.028 113.082 145.2 112.584C144.405 112.1 143.758 111.406 143.33 110.58C142.882 109.657 142.649 108.644 142.649 107.619C142.649 106.593 142.882 105.58 143.33 104.657C143.76 103.832 144.407 103.139 145.2 102.653C146.045 102.182 146.996 101.935 147.964 101.935C148.931 101.935 149.883 102.182 150.728 102.653C151.52 103.136 152.162 103.83 152.583 104.657C153.041 105.586 153.267 106.613 153.241 107.648C153.299 109.149 152.776 110.614 151.782 111.739Z" fill="white"/>
<path d="M179.817 102.728C179.061 101.299 177.948 100.091 176.586 99.2203C175.218 98.3521 173.628 97.9 172.008 97.9191C170.692 97.8995 169.393 98.2133 168.231 98.8314C167.486 99.2548 166.827 99.8126 166.286 100.477V98.308H162V124.385H166.286V114.858C166.818 115.506 167.465 116.05 168.193 116.465C169.366 117.09 170.679 117.404 172.008 117.378C173.625 117.397 175.213 116.954 176.586 116.099C177.948 115.239 179.062 114.038 179.817 112.614C180.616 111.096 181.023 109.401 180.999 107.686C181.025 105.96 180.619 104.256 179.817 102.728ZM175.92 110.61C175.492 111.436 174.845 112.129 174.05 112.614C173.222 113.112 172.271 113.371 171.305 113.362C170.333 113.374 169.378 113.115 168.545 112.614C167.743 112.138 167.094 111.443 166.675 110.61C166.236 109.684 166.009 108.673 166.009 107.648C166.009 106.624 166.236 105.613 166.675 104.687C167.096 103.856 167.744 103.161 168.545 102.683C169.378 102.182 170.333 101.923 171.305 101.935C172.271 101.926 173.222 102.185 174.05 102.683C174.843 103.169 175.49 103.862 175.92 104.687C176.368 105.61 176.601 106.623 176.601 107.648C176.601 108.674 176.368 109.687 175.92 110.61Z" fill="white"/>
<defs>
<linearGradient id="paint0_linear_45_42" x1="64.9156" y1="40.0949" x2="115.62" y2="40.0949" gradientUnits="userSpaceOnUse">
<stop stop-color="#76B0F2"/>
<stop offset="1" stop-color="#DAEAD2"/>
</linearGradient>
</defs>
</svg>
